_________________________  Visit us at _________________________
  
http://p2pdl.com  ____________________________  http://p2pdl.com


Cabaret 1972 BRRip 720p x264 AAC - PRiSTiNE [P2PDL]

Genre: Drama | Musical
Plot: A female girlie club entertainer in Weimar 
Republic era Berlin romances two men while the Nazi 
Party rises to power around them.
Director: Bob Fosse
Stars: Liza Minnelli, Michael York, Helmut Griem
Rated: PG

Info: 
http://www.imdb.com/title/tt0068327/

General
Complete name                  : Cabaret 1972 BRRip 720p x264 AAC - PRiSTiNE.mp4
Format                         : MPEG-4
Format profile                 : Base Media
File size                      : 781 MiB
Duration                       : 2h 3mn
Overall bit rate mode          : Variable
Overall bit rate               : 883 Kbps
Video
Format                         : AVC
Format/Info                    : Advanced Video Codec
Format profile                 : High 10@L4.1
Bit rate                       : 803 Kbps
Width                          : 1 280 pixels
Height                         : 720 pixels
Display aspect ratio           : 16:9
Frame rate mode                : Constant
Frame rate                     : 23.976 fps
Bit depth                      : 10 bits
Stream size                    : 709 MiB (91%)
Writing library                : x264 core 130 r2273 b3065e6

Audio
Format                         : AAC
Duration                       : 2h 3mn
Bit rate mode                  : Variable
Bit rate                       : 78.1 Kbps
Channel(s)                     : 2 channels
Channel positions              : Front: L R
Sampling rate                  : 48.0 KHz / 24.0 KHz
Stream size                    : 69.1 MiB (9%)
Language                       : English

Subtitle                       : Yes (English)
Source                         : 720p BluRay x264 EbP (Thanks)

Screens:
 
http://www.ultraimg.com/images/p7OwA.jpg 
http://www.ultraimg.com/images/42ctr.jpg 
http://www.ultraimg.com/images/IEwd3.jpg 
http://www.ultraimg.com/images/A18kT.jpg


----------------------------------------------------------------------------------------------------


Encoded using revolutionary 10bit encoding, which enables us to provide you more crispier 
and sharper images at small sizes, just make sure you follow our instructions without a fault.
Recommend to you to use latest version of VLC player. Install K-Lite Codec Pack or shark007 codecs
in case of any kind of problem in playback (For non-VLC Media Player users). Alternatively, install
Core AVC codecs, the fastest decoder that there is coupled with Community Center Codec Pack and play
on Windows Media Player Classic. Check sample to be sure.
Enjoy!

Encoder Notes:Looking For Early Access To Anything You Can Provide DVDScr, R5, DVDR, BluRay, Direct
Audio, Music Releases and Seedboxes. We require dedicated servers, so as to do more 
and fast releases of movies.
If You Got anything to offer please contact us at "prg@hush.com".

Face book Fan Page:   
http://www.fb.me/p2pdl